<mxfile host="app.diagrams.net" agent="Mozilla/5.0 (X11; Ubuntu; Linux x86_64; rv:133.0) Gecko/20100101 Firefox/133.0" version="25.0.3">
  <diagram name="Page-1" id="HHO7tMF4Vck_DR756JE1">
    <mxGraphModel dx="1434" dy="740" grid="1" gridSize="10" guides="1" tooltips="1" connect="1" arrows="1" fold="1" page="1" pageScale="1" pageWidth="827" pageHeight="1169" math="0" shadow="0">
      <root>
        <mxCell id="0" />
        <mxCell id="1" parent="0" />
        <mxCell id="xXsEqF2SiZBMwcqlSO_b-6" style="edgeStyle=orthogonalEdgeStyle;rounded=0;orthogonalLoop=1;jettySize=auto;html=1;strokeWidth=2;" edge="1" parent="1" source="OHbJW_l4e2RDl2kT1JHy-1">
          <mxGeometry relative="1" as="geometry">
            <mxPoint x="520" y="520" as="targetPoint" />
          </mxGeometry>
        </mxCell>
        <mxCell id="OHbJW_l4e2RDl2kT1JHy-1" value="" style="ellipse;whiteSpace=wrap;html=1;aspect=fixed;strokeWidth=2;" parent="1" vertex="1">
          <mxGeometry x="400.03" y="480" width="80" height="80" as="geometry" />
        </mxCell>
        <mxCell id="OHbJW_l4e2RDl2kT1JHy-5" value="" style="endArrow=none;html=1;rounded=0;entryX=0.5;entryY=0;entryDx=0;entryDy=0;exitX=0.5;exitY=1;exitDx=0;exitDy=0;" parent="1" source="OHbJW_l4e2RDl2kT1JHy-1" target="OHbJW_l4e2RDl2kT1JHy-1" edge="1">
          <mxGeometry width="50" height="50" relative="1" as="geometry">
            <mxPoint x="270.03" y="950" as="sourcePoint" />
            <mxPoint x="320.03" y="900" as="targetPoint" />
          </mxGeometry>
        </mxCell>
        <mxCell id="OHbJW_l4e2RDl2kT1JHy-7" value="&lt;div align=&quot;center&quot;&gt;&lt;b&gt;&lt;font style=&quot;font-size: 24px;&quot;&gt;Σ&lt;/font&gt;&lt;/b&gt;&lt;/div&gt;" style="text;html=1;align=center;verticalAlign=middle;whiteSpace=wrap;rounded=0;" parent="1" vertex="1">
          <mxGeometry x="400.03" y="480" width="40" height="80" as="geometry" />
        </mxCell>
        <mxCell id="OHbJW_l4e2RDl2kT1JHy-9" value="" style="curved=1;endArrow=none;html=1;rounded=0;endFill=0;strokeWidth=2;" parent="1" edge="1">
          <mxGeometry width="50" height="50" relative="1" as="geometry">
            <mxPoint x="447.03" y="540" as="sourcePoint" />
            <mxPoint x="467.03" y="500" as="targetPoint" />
            <Array as="points">
              <mxPoint x="457.03" y="540" />
              <mxPoint x="457.03" y="500" />
            </Array>
          </mxGeometry>
        </mxCell>
        <mxCell id="xXsEqF2SiZBMwcqlSO_b-3" style="edgeStyle=orthogonalEdgeStyle;rounded=0;orthogonalLoop=1;jettySize=auto;html=1;entryX=0;entryY=0.5;entryDx=0;entryDy=0;strokeWidth=2;fillColor=#f8cecc;strokeColor=#b85450;" edge="1" parent="1" source="xXsEqF2SiZBMwcqlSO_b-2" target="OHbJW_l4e2RDl2kT1JHy-7">
          <mxGeometry relative="1" as="geometry" />
        </mxCell>
        <mxCell id="xXsEqF2SiZBMwcqlSO_b-8" value="&lt;font color=&quot;#a40000&quot; style=&quot;font-size: 16px;&quot;&gt;&lt;b&gt;w&lt;/b&gt;&lt;/font&gt;" style="edgeLabel;html=1;align=center;verticalAlign=middle;resizable=0;points=[];" vertex="1" connectable="0" parent="xXsEqF2SiZBMwcqlSO_b-3">
          <mxGeometry x="-0.3668" y="2" relative="1" as="geometry">
            <mxPoint x="22" y="12" as="offset" />
          </mxGeometry>
        </mxCell>
        <mxCell id="xXsEqF2SiZBMwcqlSO_b-2" value="&lt;b&gt;&lt;font style=&quot;font-size: 16px;&quot; color=&quot;#a40000&quot;&gt;x&lt;/font&gt;&lt;/b&gt;" style="whiteSpace=wrap;html=1;aspect=fixed;fillColor=#f8cecc;strokeColor=#b85450;strokeWidth=2;" vertex="1" parent="1">
          <mxGeometry x="240" y="500" width="40" height="40" as="geometry" />
        </mxCell>
        <mxCell id="xXsEqF2SiZBMwcqlSO_b-5" style="rounded=0;orthogonalLoop=1;jettySize=auto;html=1;entryX=0;entryY=0.25;entryDx=0;entryDy=0;strokeWidth=2;fillColor=#ffe6cc;strokeColor=#d79b00;" edge="1" parent="1" source="xXsEqF2SiZBMwcqlSO_b-4" target="OHbJW_l4e2RDl2kT1JHy-7">
          <mxGeometry relative="1" as="geometry" />
        </mxCell>
        <mxCell id="xXsEqF2SiZBMwcqlSO_b-7" value="&lt;b&gt;&lt;font color=&quot;#ce5c00&quot; style=&quot;font-size: 16px;&quot;&gt;b&lt;/font&gt;&lt;/b&gt;" style="edgeLabel;html=1;align=center;verticalAlign=middle;resizable=0;points=[];" vertex="1" connectable="0" parent="xXsEqF2SiZBMwcqlSO_b-5">
          <mxGeometry x="-0.2587" y="-2" relative="1" as="geometry">
            <mxPoint x="17" y="-7" as="offset" />
          </mxGeometry>
        </mxCell>
        <mxCell id="xXsEqF2SiZBMwcqlSO_b-4" value="&lt;font style=&quot;font-size: 16px;&quot;&gt;&lt;b&gt;&lt;font color=&quot;#ce5c00&quot;&gt;1&lt;/font&gt;&lt;/b&gt;&lt;/font&gt;" style="text;html=1;align=center;verticalAlign=middle;whiteSpace=wrap;rounded=0;" vertex="1" parent="1">
          <mxGeometry x="240" y="360" width="40" height="40" as="geometry" />
        </mxCell>
        <mxCell id="xXsEqF2SiZBMwcqlSO_b-9" value="&lt;font style=&quot;font-size: 16px;&quot;&gt;E = (&lt;b&gt;y&lt;/b&gt; - &lt;b&gt;y&lt;/b&gt;*)² / 2&lt;/font&gt;" style="text;html=1;align=center;verticalAlign=middle;resizable=0;points=[];autosize=1;strokeColor=none;fillColor=none;" vertex="1" parent="1">
          <mxGeometry x="520" y="505" width="130" height="30" as="geometry" />
        </mxCell>
        <mxCell id="xXsEqF2SiZBMwcqlSO_b-10" value="&lt;b&gt;&lt;font style=&quot;font-size: 16px;&quot;&gt;y&lt;/font&gt;&lt;/b&gt;" style="text;html=1;align=center;verticalAlign=middle;resizable=0;points=[];autosize=1;strokeColor=none;fillColor=none;" vertex="1" parent="1">
          <mxGeometry x="480.03" y="522" width="30" height="30" as="geometry" />
        </mxCell>
        <mxCell id="xXsEqF2SiZBMwcqlSO_b-11" value="&lt;b&gt;&lt;font style=&quot;font-size: 16px;&quot;&gt;σ&lt;/font&gt;&lt;/b&gt;" style="text;html=1;align=center;verticalAlign=middle;resizable=0;points=[];autosize=1;strokeColor=none;fillColor=none;" vertex="1" parent="1">
          <mxGeometry x="425.03" y="560" width="30" height="30" as="geometry" />
        </mxCell>
      </root>
    </mxGraphModel>
  </diagram>
</mxfile>
